HIERARCHY
ROOT Hips
{
	OFFSET -14.64140 90.27770 -84.91600
	CHANNELS 6 Xposition Yposition Zposition Zrotation Xrotation Yrotation
	JOINT Spine
	{
		OFFSET 0.00000 13.20850 -1.60436
		CHANNELS 3 Zrotation Xrotation Yrotation
		JOINT Spine1
		{
			OFFSET 0.00000 8.61716 0.00000
			CHANNELS 3 Zrotation Xrotation Yrotation
			JOINT Spine2
			{
				OFFSET 0.00000 8.61717 0.00000
				CHANNELS 3 Zrotation Xrotation Yrotation
				JOINT Spine3
				{
					OFFSET 0.00000 8.61717 0.00000
					CHANNELS 3 Zrotation Xrotation Yrotation
					JOINT Neck
					{
						OFFSET 0.00000 11.07920 1.10792
						CHANNELS 3 Zrotation Xrotation Yrotation
						JOINT Neck1
						{
							OFFSET 0.00000 7.08032 0.00000
							CHANNELS 3 Zrotation Xrotation Yrotation
							JOINT Head
							{
								OFFSET 0.00000 7.08031 0.00000
								CHANNELS 3 Zrotation Xrotation Yrotation
								End site
								{
									OFFSET 0.00000 0.00000 0.00000
								}
							}
						}
					}
					JOINT RightShoulder
					{
						OFFSET -0.01000 7.91373 5.19711
						CHANNELS 3 Zrotation Xrotation Yrotation
						JOINT RightArm
						{
							OFFSET -18.41580 0.00000 0.00000
							CHANNELS 3 Zrotation Xrotation Yrotation
							JOINT RightForeArm
							{
								OFFSET -29.11090 0.00000 0.00000
								CHANNELS 3 Zrotation Xrotation Yrotation
								JOINT RightHand
								{
									OFFSET -24.65040 0.00000 0.00000
									CHANNELS 3 Zrotation Xrotation Yrotation
									JOINT RightHandThumb1
									{
										OFFSET -5.35114 -0.85590 3.97906
										CHANNELS 3 Zrotation Xrotation Yrotation
										JOINT RightHandThumb2
										{
											OFFSET -4.52789 0.00000 0.00000
											CHANNELS 3 Zrotation Xrotation Yrotation
											JOINT RightHandThumb3
											{
												OFFSET -2.46976 0.00000 0.00000
												CHANNELS 3 Zrotation Xrotation Yrotation
												End site
												{
													OFFSET 0.00000 0.00000 0.00000
												}
											}
										}
									}
									JOINT RightHandIndex1
									{
										OFFSET -14.26970 0.00000 2.88139
										CHANNELS 3 Zrotation Xrotation Yrotation
										JOINT RightHandIndex2
										{
											OFFSET -5.48836 0.00000 0.00000
											CHANNELS 3 Zrotation Xrotation Yrotation
											JOINT RightHandIndex3
											{
												OFFSET -3.01859 0.00000 0.00000
												CHANNELS 3 Zrotation Xrotation Yrotation
												End site
												{
													OFFSET 0.00000 0.00000 0.00000
												}
											}
										}
									}
									JOINT RightHandMiddle1
									{
										OFFSET -14.26970 0.00000 -0.09147
										CHANNELS 3 Zrotation Xrotation Yrotation
										JOINT RightHandMiddle2
										{
											OFFSET -6.17441 0.00000 0.00000
											CHANNELS 3 Zrotation Xrotation Yrotation
											JOINT RightHandMiddle3
											{
												OFFSET -3.56743 0.00000 0.00000
												CHANNELS 3 Zrotation Xrotation Yrotation
												End site
												{
													OFFSET 0.00000 0.00000 0.00000
												}
											}
										}
									}
									JOINT RightHandRing1
									{
										OFFSET -12.69180 0.00000 -3.06433
										CHANNELS 3 Zrotation Xrotation Yrotation
										JOINT RightHandRing2
										{
											OFFSET -5.62556 0.00000 0.00000
											CHANNELS 3 Zrotation Xrotation Yrotation
											JOINT RightHandRing3
											{
												OFFSET -3.56744 0.00000 0.00000
												CHANNELS 3 Zrotation Xrotation Yrotation
												End site
												{
													OFFSET 0.00000 0.00000 0.00000
												}
											}
										}
									}
									JOINT RightHandPinky1
									{
										OFFSET -11.11390 0.00000 -6.03719
										CHANNELS 3 Zrotation Xrotation Yrotation
										JOINT RightHandPinky2
										{
											OFFSET -4.52789 0.00000 0.00000
											CHANNELS 3 Zrotation Xrotation Yrotation
											JOINT RightHandPinky3
											{
												OFFSET -2.46976 0.00000 0.00000
												CHANNELS 3 Zrotation Xrotation Yrotation
												End site
												{
													OFFSET 0.00000 0.00000 0.00000
												}
											}
										}
									}
								}
							}
						}
					}
					JOINT LeftShoulder
					{
						OFFSET 0.01000 7.91373 5.19711
						CHANNELS 3 Zrotation Xrotation Yrotation
						JOINT LeftArm
						{
							OFFSET 18.41580 0.00000 0.00000
							CHANNELS 3 Zrotation Xrotation Yrotation
							JOINT LeftForeArm
							{
								OFFSET 29.11090 0.00000 0.00000
								CHANNELS 3 Zrotation Xrotation Yrotation
								JOINT LeftHand
								{
									OFFSET 24.65040 0.00000 0.00000
									CHANNELS 3 Zrotation Xrotation Yrotation
									JOINT LeftHandThumb1
									{
										OFFSET 5.35114 -0.85590 3.97906
										CHANNELS 3 Zrotation Xrotation Yrotation
										JOINT LeftHandThumb2
										{
											OFFSET 4.52789 0.00000 0.00000
											CHANNELS 3 Zrotation Xrotation Yrotation
											JOINT LeftHandThumb3
											{
												OFFSET 2.46977 0.00000 0.00000
												CHANNELS 3 Zrotation Xrotation Yrotation
												End site
												{
													OFFSET 0.00000 0.00000 0.00000
												}
											}
										}
									}
									JOINT LeftHandIndex1
									{
										OFFSET 14.26970 0.00000 2.88139
										CHANNELS 3 Zrotation Xrotation Yrotation
										JOINT LeftHandIndex2
										{
											OFFSET 5.48836 0.00000 0.00000
											CHANNELS 3 Zrotation Xrotation Yrotation
											JOINT LeftHandIndex3
											{
												OFFSET 3.01859 0.00000 0.00000
												CHANNELS 3 Zrotation Xrotation Yrotation
												End site
												{
													OFFSET 0.00000 0.00000 0.00000
												}
											}
										}
									}
									JOINT LeftHandMiddle1
									{
										OFFSET 14.26970 0.00000 -0.09147
										CHANNELS 3 Zrotation Xrotation Yrotation
										JOINT LeftHandMiddle2
										{
											OFFSET 6.17440 0.00000 0.00000
											CHANNELS 3 Zrotation Xrotation Yrotation
											JOINT LeftHandMiddle3
											{
												OFFSET 3.56744 0.00000 0.00000
												CHANNELS 3 Zrotation Xrotation Yrotation
												End site
												{
													OFFSET 0.00000 0.00000 0.00000
												}
											}
										}
									}
									JOINT LeftHandRing1
									{
										OFFSET 12.69180 0.00000 -3.06433
										CHANNELS 3 Zrotation Xrotation Yrotation
										JOINT LeftHandRing2
										{
											OFFSET 5.62556 0.00000 0.00000
											CHANNELS 3 Zrotation Xrotation Yrotation
											JOINT LeftHandRing3
											{
												OFFSET 3.56744 0.00000 0.00000
												CHANNELS 3 Zrotation Xrotation Yrotation
												End site
												{
													OFFSET 0.00000 0.00000 0.00000
												}
											}
										}
									}
									JOINT LeftHandPinky1
									{
										OFFSET 11.11390 0.00000 -6.03719
										CHANNELS 3 Zrotation Xrotation Yrotation
										JOINT LeftHandPinky2
										{
											OFFSET 4.52789 0.00000 0.00000
											CHANNELS 3 Zrotation Xrotation Yrotation
											JOINT LeftHandPinky3
											{
												OFFSET 2.46976 0.00000 0.00000
												CHANNELS 3 Zrotation Xrotation Yrotation
												End site
												{
													OFFSET 0.00000 0.00000 0.00000
												}
											}
										}
									}
								}
							}
						}
					}
					JOINT pCube4
					{
						OFFSET 0.00000 10.91090 1.10792
						CHANNELS 3 Zrotation Xrotation Yrotation
						End site
						{
							OFFSET 0.00000 0.00000 0.00000
						}
					}
				}
			}
		}
	}
	JOINT RightUpLeg
	{
		OFFSET -9.98441 0.00000 0.00000
		CHANNELS 3 Zrotation Xrotation Yrotation
		JOINT RightLeg
		{
			OFFSET 0.00000 -42.11790 0.00000
			CHANNELS 3 Zrotation Xrotation Yrotation
			JOINT RightFoot
			{
				OFFSET 0.00000 -45.00020 -0.00001
				CHANNELS 3 Zrotation Xrotation Yrotation
				JOINT RightForeFoot
				{
					OFFSET 0.00000 -3.74820 0.00000
					CHANNELS 3 Zrotation Xrotation Yrotation
					JOINT RightToeBase
					{
						OFFSET 0.00000 0.06325 14.43120
						CHANNELS 3 Zrotation Xrotation Yrotation
						End site
						{
							OFFSET 0.00000 0.00000 0.00000
						}
					}
				}
			}
		}
	}
	JOINT LeftUpLeg
	{
		OFFSET 9.98441 0.00000 0.00000
		CHANNELS 3 Zrotation Xrotation Yrotation
		JOINT LeftLeg
		{
			OFFSET 0.00000 -42.11800 0.00000
			CHANNELS 3 Zrotation Xrotation Yrotation
			JOINT LeftFoot
			{
				OFFSET 0.00000 -45.00070 0.00000
				CHANNELS 3 Zrotation Xrotation Yrotation
				JOINT LeftForeFoot
				{
					OFFSET 0.00000 -3.74824 0.00000
					CHANNELS 3 Zrotation Xrotation Yrotation
					JOINT LeftToeBase
					{
						OFFSET 0.00000 0.06325 14.43110
						CHANNELS 3 Zrotation Xrotation Yrotation
						End site
						{
							OFFSET 0.00000 0.00000 0.00000
						}
					}
				}
			}
		}
	}
}
MOTION
Frames: 4
Frame Time: 0.050000
-0.04244041945385556 -0.02764637448911916 0.0343456488513874 0.01651154603306133 -0.013916244392419237 0.03017348379418551 4.094489523143316 4.4030896602707355 -1.8195093099352835 -0.9488159884213673 3.901650178998236 0.3752351299115502 -0.5868989381992994 -1.0148409173815112 0.45398467887196103 -0.5993305256507628 0.22842076535186764 -0.3397048179313144 -0.9418379057012937 13.764071588557874 1.30347166506991 0.21520560188953736 -0.9124067708160248 3.3480324847858163 0.07342178500964702 -17.841612359265007 0.19967557282096396 -8.239330835904521 2.9960106623573033 -16.997800933930034 80.52493264364234 15.280106179484523 2.335944348790679 -0.6119329502758442 6.044680132829001 55.27288430370976 14.312266373221606 -0.14769194087470847 -1.1863336816903263 4.575912170496395 -0.08887557480009166 -1.5957463173037523 0.03244445321351074 0.02590896981904376 -56.263745119443044 -0.03208027851065763 -0.003781761160433042 -56.23098267190307 -38.78353131648038 0.026043679023046593 0.013394356470751448 0.004800795120594867 0.018564394774532523 0.01208023990621527 -0.0326118456917477 -0.033015068816171125 0.024983699669527532 -36.69746747299487 -0.00824233151282129 0.02707440580388625 0.04405334869176861 0.008301403268944466 -0.02991071487170086 0.007641954841293488 0.03061362239147872 0.024163209958307105 -19.743668962251775 -0.007774323717232443 0.032035771921671986 0.0066131079927717485 0.014005137333778164 0.04106942667138953 0.027690451053262156 -0.0026711260945296066 0.021004343785266274 24.03081143754412 -0.018814471662626415 -0.023798071619875127 28.87326506345293 -0.019404917713487787 0.008818098965214762 28.910418722414107 -0.006754171962644473 -0.034063860097396946 10.47294635719718 2.424901832352719 14.924725269380238 -72.85695993995085 25.613921070655174 -18.059475586158555 16.760966575039227 -6.789807776263882 -71.9232578732908 -7.1418972838378565 1.0998522435136522 -2.5855420768934323 -0.47797260158394905 0.08707749987698092 -8.090742343064985 0.04856660794854931 0.03867229093654601 44.616881408777154 0.0004045717914693984 0.0004918456878686616 44.597786761312385 12.44422445582615 0.04850399565459281 -0.01907775802376455 -0.03884180715763314 0.02903249999032893 0.033594713009662616 0.018936204398015955 -0.03620336715265003 0.012114843815409828 11.080977509465612 -0.03448536412808765 0.0483915627423883 -0.01572162331674887 0.024333766850497873 0.04607066850425294 0.007441727748970964 0.01967216373541184 -0.02071766724773426 4.803718411301919 -0.006027659060166741 0.010916029094744732 0.003987076453744992 -0.007836869460506957 0.0036684575849008517 0.012134943166238378 0.006973578661115935 0.010156242352797466 -5.568844832979087 -0.008294545630103374 0.02886123967358233 -6.721915323146093 -0.00723065569658879 0.049835400073539544 -6.698419722344217 -0.02827226094051488 0.012186103421520841 0.011118208505813881 0.00860294420363755 -0.033151659600058114 8.021079709711001 3.45623750407677 -19.210079150758837 0.015360578558642242 10.3503865775198 0.015413016448601019 -5.620429107289379 -15.682700289190523 3.2220674287022146 -0.019986813016387165 0.040139899985001413 0.016451724087719912 0.018733017813708737 4.66765472989575 0.023848450899491305 12.45947049789367 -8.256325059048017 6.895959314956889 0.022288769630067953 46.39296591872153 -0.024198618146460307 -4.369282669087768 -14.750480075328719 -3.813369465180586 0.025561190566660622 -0.01125352225719278 -0.011949488688691643 -0.020652137336441678 -10.727021309949155 0.006231032143592394 
0.040703690161979986 -0.02249466596627725 0.00707009697938641 -0.02480559271726625 0.012217183471569484 0.02751799778584445 4.224257466074379 4.346330820442216 -1.9079818288003747 -0.8746141091832044 3.8885514800481507 0.4149058775653696 -0.6439350517159339 -1.0287581863496627 0.4387161706829836 -0.37661174732036407 0.18536158475143039 -0.30140986691416083 -0.7368006663193322 13.914476115748384 0.712323656912185 0.2744734960527833 -0.9042331371930611 1.9985600598992488 0.3718842123131692 -17.925479621596583 0.15034310389417108 -8.451215543716206 3.0332643382022457 -17.122091938482118 80.65267865429959 15.41944756597323 2.2179697690525586 -0.539918091569896 5.682747140831186 54.50804430423837 14.383367428268427 -0.15078078506595757 -0.972989770289404 4.518704485118954 -0.1099694731094379 -1.5659742128344627 -0.02650268369874563 -0.028655392732753138 -56.22519107332675 0.028120691157633885 0.04945543832728824 -56.23282870704031 -38.79252996156161 0.025287695010670883 0.027834289733928333 -0.019723033881096627 -0.00360994886143904 -0.0061136103865138125 -0.019154926369702563 0.005099812066068484 0.005667648667837474 -36.69723945253775 -0.01612671752033512 0.03671297127175148 -0.018067765133837333 -0.0338863085197522 0.010998666882612161 -0.04994281476527527 0.0425624118678274 0.048872487975296836 -19.75807433186012 0.0011149906639732208 -0.034380546314392815 -0.010088071151027849 0.03247396655651232 0.011338930514818525 -0.025716979838163664 -0.043629116506854276 0.0019386569939915644 24.02764637415723 -0.015792385153736765 0.003940463896074702 28.821797765444348 0.04345893186514186 -0.01934179206273449 28.834909120008135 -0.0030947837434533204 -0.0034698071677639205 10.238043377984017 2.3707686907707077 14.919451410354387 -72.84190750357517 26.42033939283586 -16.83767489496705 17.777803598937542 -8.255545553196205 -73.69587820737482 -6.226503054118079 1.4892421893907906 -3.8946212664413973 -0.4639678691817098 0.058268832987898186 -8.127677174656116 0.006340156135887737 0.0003932387979871157 44.6081688573518 -0.016635552322625542 -0.01102548389880699 44.591163424746895 12.462802350758075 -0.041074045551413044 0.035906869697961336 0.030739227195137154 0.020144892271742158 0.035365865677718 0.03153766500041493 -0.03747516458693788 -0.020562150054524775 11.068591418101013 -0.035378574227606825 -0.0245071206500343 -0.03306531900789906 0.005352751276195932 0.0011162304445004913 -0.0005290623414016763 -0.016466486037912856 -0.02856359741910877 4.771085898165048 0.0027326690347457476 0.0032533253157414495 -0.022061708609581124 -0.024579521742733573 -0.012659315634346321 -0.01521415229939386 -0.03434820782516147 0.019666850097402877 -5.640940766467844 -0.02020089667116439 -0.032085525315504695 -6.7459217605134105 -0.024311824874711785 0.04664260690458756 -6.760222508180136 -0.04124051970120985 0.02466072628166396 0.02860017348204837 0.022770718635156523 -0.021807264207017663 8.070281563439506 3.4927962247572277 -19.262309465386366 0.026133979547345552 10.349474420754 -0.007347051263182837 -5.575878337098063 -15.680453996061697 3.203801539137937 -0.04034637772164688 0.041968512760067564 -0.045854911648910625 0.023454369918313078 4.665512865083606 0.026620006555119008 12.416508653224076 -8.279120249426983 6.878783482871125 0.011043064232131685 46.41582065085734 0.01293809606095344 -4.303476145052708 -14.780862181160767 -3.8326322905655026 -0.0033521028040632466 0.04140320917470299 -0.03377705766213706 -0.020541963887977945 -10.757802181264958 -0.031081727477510254 
-0.049583537209982896 -0.017648023480335336 -0.03319965943308114 0.02984279419588125 -0.001290139151946335 -0.005104602110979831 4.394919243051162 4.191380144772751 -1.9254555490313898 -0.8952116161276552 3.9144126483479798 0.4166800166428745 -0.6616031876509239 -1.0911247443760244 0.44573367744156694 -0.30052482431661165 0.1681974164583243 -0.37847312792479415 -0.49855431890580504 13.962463838421465 0.10112393484534396 0.37268102432797107 -0.9629635246329858 0.5588564814333895 0.6052405558889556 -17.97760898309681 -0.0439524592155415 -8.677008346399864 2.9614851232495925 -17.301998649690656 81.00396442474369 15.273339664845038 1.9748232629411062 -0.2970600764641642 5.618735578445634 53.51336523499256 14.621242080849946 -0.21417232334046724 -0.7108937585636439 4.540195970463229 -0.14086659430212023 -1.5511950677460598 0.04106049185038925 0.012973428959206753 -56.26378859383627 0.01162691270520973 -0.0038392546744086924 -56.20487051167874 -38.761347669061045 -0.030349531798229547 -0.04787333649957215 -0.0033509889773531134 -0.010896246521999981 0.010368577162270168 -0.048650087773536285 0.04797880932338534 -0.037921705106657495 -36.69879836639102 -0.045500708148838796 0.004365287653506934 -0.0002017007961080115 0.039836077523579226 -0.04233224033645449 0.000874255438756037 0.031021963395540333 -0.007804498172572012 -19.730462836987044 -0.019000807353115125 -0.04486479600528861 0.0009724399879265582 0.013714260905511588 -0.009022409002474557 0.015923662563247138 -0.009471463878298102 0.025547978109430082 24.10154462632936 0.006721529116964869 -0.0026075676155823077 28.829251037028683 -0.0424876731266447 0.0011903979311269782 28.83568915749861 0.03414455201548205 0.027057455933800992 10.048729935591622 2.30286889282557 14.978535262917587 -72.97615228934215 27.147377756970535 -15.791537131341906 18.228800447533214 -8.987651796328889 -75.58052683678726 -5.603876874938969 2.095183973530212 -5.1183036197152685 -0.5113289042926065 0.0589792808740204 -8.146980557756375 -0.03487281594133932 0.024634558670780193 44.56678218260505 -0.03703975828010068 0.04375122918593215 44.55493216165622 12.430604037459016 -0.0185124622770366 0.030599980557934888 0.031534125583749004 0.018991330908044304 0.047029449951267524 -0.013916593893831286 -0.006277934256590943 -0.023837130380233627 11.07554267953697 -0.04647011934955861 0.03567136514449993 0.009082272289921499 0.01841686461503906 -0.0030770786350387182 0.012271859743428414 0.030479844722470346 -0.04936432089648535 4.772808342358847 -0.03158365205357257 0.012558857500721374 -0.045215835169817864 0.005779256811247936 0.034191426715442355 -0.001785900379091677 -0.006647819568981176 0.018085492557114585 -5.581450458541345 0.002755978523990517 0.021644035174181574 -6.681781519097507 -0.005152570702144071 0.03663396474570598 -6.752390054946678 -0.03171625784731079 0.01705544689720548 -0.028116472406559925 -0.016277057932844348 -0.02512378269185361 8.046264351904908 3.473197914165352 -19.267267969963665 0.03695207363689664 10.396419948821828 0.0270587727158021 -5.620164803990746 -15.64812285781413 3.1779449485322946 0.015456646128855712 0.01791224919541735 0.04389212707627829 0.030662243758333176 4.700174112002573 -0.045942952488123995 12.465747303670685 -8.269431092983883 6.919899772419222 -0.0013498112329661744 46.420866771944326 -0.028367519744705038 -4.314395115700266 -14.714762100611713 -3.878694408852394 0.03383275274498583 -0.029628209544607643 0.04034915513381634 0.014518730995259846 -10.769525923146565 -0.018196280920502017 
0.02003287212475133 -0.03231519533088776 -0.045608217890603694 0.04018322200023539 0.04764641510200572 0.00894878216345181 4.614268414941818 4.122427766950876 -1.9577439912864019 -0.8329741455608026 3.9376019823580664 0.3843011335305948 -0.6441801449326634 -1.0887699646155966 0.44717732386596415 -0.15782239213224564 0.09747810468954318 -0.3714761303789008 -0.30618264327981537 13.926672371642047 -0.45725863896559626 0.3764631455211096 -1.0623158484859478 -0.6508962129730168 0.7890365074536376 -18.14905288516072 -0.16975189318346692 -8.817678765747212 3.0107650474677246 -17.520957653404498 81.17183733202965 14.83310227729469 1.8392315697368562 -0.14735753264541396 5.526258923024439 52.36828841445671 14.768582261046893 -0.20009881316654393 -0.4859803955731855 4.486408354341936 -0.0792572763801984 -1.5726870976699017 0.0163299544885285 0.023758160105268517 -56.22942253892024 -0.020854757702021033 -0.004115613096634715 -56.24616869786971 -38.743266790027114 -0.00019324963665042405 -0.005347904297283716 0.032130842597395806 -0.04586072602132394 -0.00268770144368761 0.048039674466484564 -0.015470669200285432 0.02293966481328482 -36.698820761471964 -0.004352058720702913 -0.034461779844218 -0.008525239873239275 -0.028682710205129275 -0.014509035500666439 -0.007266414784626342 0.018348473968248194 -0.040200984396485964 -19.711534560809866 0.003519677289662605 -0.015113598258117866 0.01660647038794445 0.04036795849067359 0.04190614443557204 -0.029370579536843723 -0.009337220920236228 0.036345059688116216 24.056164411165106 -0.005560690057113872 -0.008911785944061994 28.910520719959308 0.0010072592764007945 -0.045191392936004285 28.843523124178603 -0.015766128791644296 -0.028217825117425394 9.868056824018167 2.3355500266376588 14.981889570442325 -73.10640860826861 27.57107676596954 -14.887970843157522 17.782066344137476 -9.16513553364109 -76.34770520446236 -5.417758164941516 2.382524627340367 -5.864971053016325 -0.5053659091771145 0.08880061361617898 -8.14149928496097 0.018187803157452637 -0.002737030039384818 44.592403272530376 0.041440980218678654 0.03057495402966483 44.56360650539249 12.501735828902468 -0.027452205756091013 -0.010323958563435313 0.015665002915999832 0.017781544790109047 -0.009596107274783465 0.04319637675702004 0.013445958557785583 -0.043222137619810204 11.136983167025175 -0.032606339489311825 -0.0191684032301907 -0.02662162582568899 -0.003681126430795897 0.013985600380504804 -0.04805382917480862 0.04510537665436508 0.020342341526245977 4.792651903108795 -0.008895415466696054 -0.014453266493385835 -0.009593668198921356 -0.0360902628043009 0.02399999717682739 0.011213136370173245 -0.022186518308442246 0.0027561112257820804 -5.618282940708693 -0.026062323408568067 -0.03354714976465947 -6.720673375559442 0.0009009638632065987 -0.03117468161119317 -6.762302710537309 -0.010511448894815291 -0.033189440461774196 -9.270907334185933e-05 0.041126098646109555 0.031986216167053466 8.017513726825657 3.5064329402067074 -19.243266814010862 -0.030556681320686046 10.383828850597988 0.006733768155195834 -5.6698107715392405 -15.640736156882076 3.1943208130471135 0.010039537397535537 -0.015154010637086227 0.00018622241791852435 -0.007596764988123231 4.683838578208611 0.004489431993232111 12.505303709378252 -8.243871094695415 6.884858890608923 0.006118815097495134 46.36004015928706 0.03225692312648867 -4.315828962875402 -14.716885494581007 -3.8772487508137368 -0.030288832469047323 -0.045502251631231914 -0.013680195332510144 -0.04585845794769054 -10.722867460347116 -0.0030270602477991 
